<?xml version="1.0" encoding="UTF-8"?>
<svg version="1.1" xmlns="http://www.w3.org/2000/svg" width="312" height="101">
<path d="M0 0 C4.90304748 3.9908526 8.33787511 7.93014825 9.6875 14.1875 C9.6875 17.1575 9.6875 20.1275 9.6875 23.1875 C-4.5025 23.1875 -18.6925 23.1875 -33.3125 23.1875 C-31.07119587 29.11451541 -31.07119587 29.11451541 -27.625 30.625 C-23.39313557 31.34361849 -20.53110037 31.07204524 -16.3125 30.1875 C-15.67989258 29.68178467 -15.04728516 29.17606934 -14.39550781 28.6550293 C-11.77747691 26.81056331 -10.28382894 26.83916287 -7.109375 26.89453125 C-5.63984375 26.9090332 -5.63984375 26.9090332 -4.140625 26.92382812 C-2.61695312 26.9615332 -2.61695312 26.9615332 -1.0625 27 C0.484375 27.02030273 0.484375 27.02030273 2.0625 27.04101562 C4.60469792 27.07632393 7.14583223 27.12563964 9.6875 27.1875 C7.92434207 33.18725069 5.98599899 35.94091542 0.6875 39.1875 C-7.03135851 42.92578125 -14.5552573 43.5549377 -23 43.625 C-23.86641113 43.63515137 -24.73282227 43.64530273 -25.62548828 43.65576172 C-33.73732598 43.54649583 -42.27264422 41.98848707 -48.7734375 36.8125 C-53.52439904 31.79625634 -55.61188198 26.02547833 -55.9375 19.1875 C-55.61188198 12.34952167 -53.52439904 6.57874366 -48.7734375 1.5625 C-36.07661907 -8.54681515 -13.59283773 -7.43759046 0 0 Z M-33.3125 10.1875 C-33.6425 11.5075 -33.9725 12.8275 -34.3125 14.1875 C-26.7225 14.1875 -19.1325 14.1875 -11.3125 14.1875 C-12.31827779 9.89349793 -12.31827779 9.89349793 -15.3125 7.1875 C-21.67416599 5.30046941 -28.15800045 5.70591162 -33.3125 10.1875 Z " fill="#000000" transform="translate(58.3125,28.8125)"/>
<path d="M0 0 C1.33708008 0.42635742 1.33708008 0.42635742 2.70117188 0.86132812 C5.88195002 1.93082724 9.04733741 3.03823137 12.20898438 4.1628418 C35.90990785 12.47482229 60.48083653 16.99924703 85.390625 19.765625 C86.50268311 19.89275879 86.50268311 19.89275879 87.63720703 20.02246094 C91.88620301 20.48318216 96.12042187 20.68581669 100.390625 20.765625 C101.39464355 20.78608887 102.39866211 20.80655273 103.43310547 20.82763672 C146.70752888 21.91701809 146.70752888 21.91701809 188.390625 11.765625 C186.740625 10.115625 185.090625 8.465625 183.390625 6.765625 C186.12741225 5.39723137 188.43326924 5.54927682 191.4921875 5.44921875 C192.70390625 5.40732422 193.915625 5.36542969 195.1640625 5.32226562 C196.43507813 5.28294922 197.70609375 5.24363281 199.015625 5.203125 C200.93375 5.13834961 200.93375 5.13834961 202.890625 5.07226562 C206.05717848 4.96592614 209.22381253 4.86389667 212.390625 4.765625 C210.9572201 8.00028777 209.19002333 10.27388133 206.765625 12.83984375 C206.05921875 13.58943359 205.3528125 14.33902344 204.625 15.11132812 C203.88765625 15.88412109 203.1503125 16.65691406 202.390625 17.453125 C201.65328125 18.23751953 200.9159375 19.02191406 200.15625 19.83007812 C194.66233067 25.62977217 194.66233067 25.62977217 192.390625 26.765625 C192.720625 23.795625 193.050625 20.825625 193.390625 17.765625 C192.69694824 17.9524585 192.00327148 18.13929199 191.28857422 18.33178711 C183.09213004 20.46820195 174.87646069 21.99224551 166.515625 23.328125 C165.27554688 23.53630859 164.03546875 23.74449219 162.7578125 23.95898438 C142.47884045 27.23276579 122.28899439 28.17429761 101.765625 28.140625 C100.56773346 28.14041351 99.36984192 28.14020203 98.13565063 28.13998413 C77.63919039 28.1040562 57.63299819 26.98863143 37.390625 23.765625 C36.20919922 23.57838867 35.02777344 23.39115234 33.81054688 23.19824219 C12.43145285 19.67962495 -8.60597141 14.24064926 -29.171875 7.453125 C-30.19555176 7.11563232 -31.21922852 6.77813965 -32.27392578 6.43041992 C-39.35141236 4.02358764 -39.35141236 4.02358764 -41.609375 1.765625 C-39.68738281 1.92611328 -39.68738281 1.92611328 -37.7265625 2.08984375 C-26.36939787 2.91954069 -9.6491902 -3.10632506 0 0 Z " fill="#000000" transform="translate(67.609375,73.234375)"/>
<path d="M0 0 C1.72795352 0.06802967 3.45835365 0.08495645 5.1875 0.0625 C6.08855469 0.05347656 6.98960937 0.04445312 7.91796875 0.03515625 C8.94857422 0.01775391 8.94857422 0.01775391 10 0 C10.0992502 4.03833789 10.17164562 8.07619872 10.21972656 12.11547852 C10.2397799 13.48800023 10.26703028 14.86043717 10.30175781 16.23266602 C10.35054552 18.21072044 10.37088876 20.18941119 10.390625 22.16796875 C10.41157227 23.35672607 10.43251953 24.5454834 10.45410156 25.77026367 C9.90796231 29.65460573 8.76719657 31.26809612 6 34 C2.69664934 35.10111689 0.10167863 35.20226528 -3.375 35.25 C-4.49648438 35.27578125 -5.61796875 35.3015625 -6.7734375 35.328125 C-11.29042597 34.86877024 -13.83606565 33.16393435 -17 30 C-17 29.01 -17 28.02 -17 27 C-15.25008666 26.97284617 -13.50005055 26.95353449 -11.75 26.9375 C-10.28820312 26.92009766 -10.28820312 26.92009766 -8.796875 26.90234375 C-6.34241322 26.98804423 -4.33831086 27.29293934 -2 28 C-2 27.01 -2 26.02 -2 25 C-2.66386719 25.04640625 -3.32773437 25.0928125 -4.01171875 25.140625 C-11.22576743 25.43550582 -11.22576743 25.43550582 -15 23.3125 C-18.62184754 19.12473878 -19.41135413 15.55534587 -19.25390625 9.9921875 C-18.74301636 5.98366684 -16.97661205 3.12686006 -14.375 0.125 C-9.82762819 -2.02901823 -4.6865709 -1.5621903 0 0 Z M-5 6 C-6.62493901 7.12109566 -6.62493901 7.12109566 -8 9 C-8.5 12 -8.5 12 -8 15 C-6.62493901 16.87890434 -6.62493901 16.87890434 -5 18 C-3.68 17.34 -2.36 16.68 -1 16 C-1 13.36 -1 10.72 -1 8 C-2.32 7.34 -3.64 6.68 -5 6 Z " fill="#000000" transform="translate(299,45)"/>
<path d="M0 0 C1.20269531 -0.03738281 2.40539062 -0.07476562 3.64453125 -0.11328125 C8.04577459 0.41564436 10.02489084 1.17838282 13.1875 4.3125 C14.03011773 7.50205927 14.02710762 10.59004902 14 13.875 C14.02425986 15.58468196 14.0514793 17.29432516 14.08203125 19.00390625 C14.08050049 19.75873291 14.07896973 20.51355957 14.07739258 21.29125977 C14.10948177 23.51870601 14.10948177 23.51870601 15.1875 26.3125 C10.1875 26.3125 5.1875 26.3125 0.1875 26.3125 C-0.65683594 26.34730469 -1.50117188 26.38210937 -2.37109375 26.41796875 C-3.32113281 26.44503906 -4.27117187 26.47210938 -5.25 26.5 C-6.67119141 26.55220703 -6.67119141 26.55220703 -8.12109375 26.60546875 C-11.29379433 26.26010947 -12.60370491 25.59834608 -14.8125 23.3125 C-15.30859375 21.375 -15.30859375 21.375 -15.25 19.3125 C-15.24871094 18.631875 -15.24742187 17.95125 -15.24609375 17.25 C-14.67741692 14.70888554 -13.89595081 13.86138119 -11.8125 12.3125 C-9.47265625 11.58203125 -9.47265625 11.58203125 -6.875 11.125 C-6.02035156 10.96644531 -5.16570312 10.80789062 -4.28515625 10.64453125 C-1.8125 10.3125 -1.8125 10.3125 2.1875 10.3125 C1.8575 9.3225 1.5275 8.3325 1.1875 7.3125 C0.1975 7.3125 -0.7925 7.3125 -1.8125 7.3125 C-2.1425 7.9725 -2.4725 8.6325 -2.8125 9.3125 C-6.4425 9.3125 -10.0725 9.3125 -13.8125 9.3125 C-12.64886364 3.49431818 -12.64886364 3.49431818 -9.8125 1.3125 C-6.39315047 0.17271682 -3.60281425 0.07290039 0 0 Z M-3.8125 17.3125 C-3.4825 18.3025 -3.1525 19.2925 -2.8125 20.3125 C-1.1625 19.9825 0.4875 19.6525 2.1875 19.3125 C2.1875 18.3225 2.1875 17.3325 2.1875 16.3125 C-1.5888932 16.0143576 -1.5888932 16.0143576 -3.8125 17.3125 Z " fill="#000000" transform="translate(158.8125,43.6875)"/>
<path d="M0 0 C4.62 0 9.24 0 14 0 C14 14.19 14 28.38 14 43 C9.38 43 4.76 43 0 43 C0 28.81 0 14.62 0 0 Z " fill="#000000" transform="translate(93,27)"/>
<path d="M0 0 C2.86112814 1.66899142 4.56292387 2.67928869 5.61889648 5.87011719 C6.01317461 8.07362928 6.11363703 10.09081542 6.09765625 12.328125 C6.09443359 13.12734375 6.09121094 13.9265625 6.08789062 14.75 C6.07951172 15.575 6.07113281 16.4 6.0625 17.25 C6.05798828 18.09046875 6.05347656 18.9309375 6.04882812 19.796875 C6.03707961 21.86461401 6.01914522 23.93231624 6 26 C2.37 26 -1.26 26 -5 26 C-5.06058594 24.86820313 -5.12117188 23.73640625 -5.18359375 22.5703125 C-5.26799917 21.08852855 -5.35264717 19.6067584 -5.4375 18.125 C-5.47681641 17.37863281 -5.51613281 16.63226563 -5.55664062 15.86328125 C-5.71573624 11.80013136 -5.71573624 11.80013136 -7 8 C-8.32 8 -9.64 8 -11 8 C-11.33 13.94 -11.66 19.88 -12 26 C-15.63 26 -19.26 26 -23 26 C-23 17.75 -23 9.5 -23 1 C-19 1 -15 1 -11 1 C-7.53708628 -0.73145686 -3.78629108 -0.47737349 0 0 Z " fill="#000000" transform="translate(271,44)"/>
<path d="M0 0 C2.86112814 1.66899142 4.56292387 2.67928869 5.61889648 5.87011719 C6.01317461 8.07362928 6.11363703 10.09081542 6.09765625 12.328125 C6.09443359 13.12734375 6.09121094 13.9265625 6.08789062 14.75 C6.07951172 15.575 6.07113281 16.4 6.0625 17.25 C6.05798828 18.09046875 6.05347656 18.9309375 6.04882812 19.796875 C6.03707961 21.86461401 6.01914522 23.93231624 6 26 C2.37 26 -1.26 26 -5 26 C-5.06058594 24.86820313 -5.12117188 23.73640625 -5.18359375 22.5703125 C-5.26799917 21.08852855 -5.35264717 19.6067584 -5.4375 18.125 C-5.47681641 17.37863281 -5.51613281 16.63226563 -5.55664062 15.86328125 C-5.71573624 11.80013136 -5.71573624 11.80013136 -7 8 C-8.32 8 -9.64 8 -11 8 C-11.33 13.94 -11.66 19.88 -12 26 C-15.63 26 -19.26 26 -23 26 C-23 17.75 -23 9.5 -23 1 C-19 1 -15 1 -11 1 C-7.53708628 -0.73145686 -3.78629108 -0.47737349 0 0 Z " fill="#000000" transform="translate(222,44)"/>
<path d="M0 0 C2.75518886 2.68454299 4.13449216 4.75553377 5.4375 8.375 C5.4375 10.355 5.4375 12.335 5.4375 14.375 C-0.8325 14.375 -7.1025 14.375 -13.5625 14.375 C-10.84460491 17.73987254 -10.84460491 17.73987254 -6.98828125 17.66796875 C-5.61688087 17.64809338 -4.24563595 17.61241111 -2.875 17.5625 C-2.17310547 17.54896484 -1.47121094 17.53542969 -0.74804688 17.52148438 C0.98079829 17.48620182 2.70924765 17.43239583 4.4375 17.375 C2.97778582 21.22333738 1.15716191 22.67189637 -2.5625 24.375 C-5.71875 24.7734375 -5.71875 24.7734375 -9.0625 24.75 C-10.1659375 24.75773437 -11.269375 24.76546875 -12.40625 24.7734375 C-16.9674622 24.19764091 -19.54512423 22.30988584 -22.875 19.25 C-25.22279293 15.25005649 -25.25511033 11.90994862 -24.5625 7.375 C-23.08656483 4.14199914 -21.29657055 1.65339213 -18.5625 -0.625 C-12.5059615 -2.64384617 -5.80403589 -2.64745497 0 0 Z M-10.5625 4.375 C-12.37549492 5.60454016 -12.37549492 5.60454016 -13.5625 7.375 C-13.5625 8.035 -13.5625 8.695 -13.5625 9.375 C-10.9225 9.375 -8.2825 9.375 -5.5625 9.375 C-5.8925 8.055 -6.2225 6.735 -6.5625 5.375 C-8.39950789 4.60257731 -8.39950789 4.60257731 -10.5625 4.375 Z " fill="#000000" transform="translate(135.5625,45.625)"/>
<path d="M0 0 C0 3.3 0 6.6 0 10 C-0.969375 10.28875 -1.93875 10.5775 -2.9375 10.875 C-6.10664203 11.64214682 -6.10664203 11.64214682 -7 14 C-7.22858114 16.0374763 -7.41024278 18.08040303 -7.5625 20.125 C-7.64628906 21.22070312 -7.73007813 22.31640625 -7.81640625 23.4453125 C-7.87699219 24.28835937 -7.93757812 25.13140625 -8 26 C-11.63 26 -15.26 26 -19 26 C-19 17.75 -19 9.5 -19 1 C-15.04 1 -11.08 1 -7 1 C-5 0 -5 0 0 0 Z " fill="#000000" transform="translate(196,44)"/>
<path d="M0 0 C3.63 0 7.26 0 11 0 C11 8.25 11 16.5 11 25 C7.37 25 3.74 25 0 25 C0 16.75 0 8.5 0 0 Z " fill="#000000" transform="translate(233,45)"/>
<path d="M0 0 C3.63 0 7.26 0 11 0 C11 2.31 11 4.62 11 7 C7.37 7 3.74 7 0 7 C0 4.69 0 2.38 0 0 Z " fill="#000000" transform="translate(233,35)"/>
</svg>
